<svg xmlns="http://www.w3.org/2000/svg" viewBox="0 0 200 200" width="200" height="200"><rect width="200" height="200" fill="#ffffff"/><path fill="#000000" d="M16 16h56v8h-56zM88 16h8v8h-8zM112 16h8v8h-8zM128 16h56v8h-56zM16 24h8v8h-8zM64 24h8v8h-8zM80 24h8v8h-8zM96 24h16v8h-16zM128 24h8v8h-8zM176 24h8v8h-8zM16 32h8v8h-8zM32 32h24v8h-24zM64 32h8v8h-8zM88 32h8v8h-8zM112 32h8v8h-8zM128 32h8v8h-8zM144 32h24v8h-24zM176 32h8v8h-8zM16 40h8v8h-8zM32 40h24v8h-24zM64 40h8v8h-8zM88 40h8v8h-8zM128 40h8v8h-8zM144 40h24v8h-24zM176 40h8v8h-8zM16 48h8v8h-8zM32 48h24v8h-24zM64 48h8v8h-8zM80 48h24v8h-24zM112 48h8v8h-8zM128 48h8v8h-8zM144 48h24v8h-24zM176 48h8v8h-8zM16 56h8v8h-8zM64 56h8v8h-8zM96 56h8v8h-8zM112 56h8v8h-8zM128 56h8v8h-8zM176 56h8v8h-8zM16 64h56v8h-56zM80 64h8v8h-8zM96 64h8v8h-8zM112 64h8v8h-8zM128 64h56v8h-56zM88 72h8v8h-8zM104 72h16v8h-16zM16 80h8v8h-8zM32 80h8v8h-8zM48 80h8v8h-8zM64 80h8v8h-8zM88 80h24v8h-24zM144 80h8v8h-8zM168 80h8v8h-8zM24 88h8v8h-8zM40 88h16v8h-16zM72 88h16v8h-16zM128 88h24v8h-24zM168 88h16v8h-16zM24 96h8v8h-8zM64 96h24v8h-24zM96 96h8v8h-8zM112 96h16v8h-16zM136 96h48v8h-48zM24 104h16v8h-16zM48 104h16v8h-16zM72 104h24v8h-24zM144 104h8v8h-8zM168 104h8v8h-8zM24 112h8v8h-8zM40 112h16v8h-16zM64 112h8v8h-8zM80 112h24v8h-24zM112 112h16v8h-16zM136 112h16v8h-16zM80 120h8v8h-8zM96 120h16v8h-16zM120 120h8v8h-8zM160 120h16v8h-16zM16 128h56v8h-56zM88 128h24v8h-24zM136 128h16v8h-16zM160 128h24v8h-24zM16 136h8v8h-8zM64 136h8v8h-8zM104 136h16v8h-16zM136 136h8v8h-8zM176 136h8v8h-8zM16 144h8v8h-8zM32 144h24v8h-24zM64 144h8v8h-8zM80 144h32v8h-32zM144 144h8v8h-8zM16 152h8v8h-8zM32 152h24v8h-24zM64 152h8v8h-8zM88 152h24v8h-24zM128 152h24v8h-24zM160 152h16v8h-16zM16 160h8v8h-8zM32 160h24v8h-24zM64 160h8v8h-8zM80 160h8v8h-8zM96 160h8v8h-8zM112 160h8v8h-8zM128 160h8v8h-8zM144 160h8v8h-8zM160 160h8v8h-8zM176 160h8v8h-8zM16 168h8v8h-8zM64 168h8v8h-8zM96 168h16v8h-16zM144 168h8v8h-8zM168 168h8v8h-8zM16 176h56v8h-56zM80 176h16v8h-16zM104 176h16v8h-16zM136 176h8v8h-8zM168 176h16v8h-16z"/></svg>