<svg xmlns="http://www.w3.org/2000/svg" viewBox="0 0 250 250" width="250" height="250"><rect width="250" height="250" fill="#ffffff"/><path fill="#000000" d="M20 20h70v10h-70zM100 20h20v10h-20zM140 20h10v10h-10zM160 20h70v10h-70zM20 30h10v10h-10zM80 30h10v10h-10zM120 30h20v10h-20zM160 30h10v10h-10zM220 30h10v10h-10zM20 40h10v10h-10zM40 40h30v10h-30zM80 40h10v10h-10zM100 40h20v10h-20zM140 40h10v10h-10zM160 40h10v10h-10zM180 40h30v10h-30zM220 40h10v10h-10zM20 50h10v10h-10zM40 50h30v10h-30zM80 50h10v10h-10zM110 50h10v10h-10zM160 50h10v10h-10zM180 50h30v10h-30zM220 50h10v10h-10zM20 60h10v10h-10zM40 60h30v10h-30zM80 60h10v10h-10zM100 60h30v10h-30zM140 60h10v10h-10zM160 60h10v10h-10zM180 60h30v10h-30zM220 60h10v10h-10zM20 70h10v10h-10zM80 70h10v10h-10zM120 70h10v10h-10zM140 70h10v10h-10zM160 70h10v10h-10zM220 70h10v10h-10zM20 80h70v10h-70zM100 80h10v10h-10zM120 80h10v10h-10zM140 80h10v10h-10zM160 80h70v10h-70zM110 90h10v10h-10zM130 90h20v10h-20zM30 100h10v10h-10zM60 100h10v10h-10zM80 100h10v10h-10zM110 100h30v10h-30zM180 100h10v10h-10zM200 100h10v10h-10zM220 100h10v10h-10zM20 110h20v10h-20zM50 110h10v10h-10zM160 110h30v10h-30zM210 110h20v10h-20zM20 120h80v10h-80zM120 120h10v10h-10zM140 120h20v10h-20zM170 120h60v10h-60zM20 130h20v10h-20zM90 130h10v10h-10zM110 130h10v10h-10zM180 130h10v10h-10zM210 130h10v10h-10zM20 140h20v10h-20zM50 140h10v10h-10zM80 140h50v10h-50zM140 140h20v10h-20zM170 140h20v10h-20zM100 150h10v10h-10zM120 150h20v10h-20zM150 150h10v10h-10zM200 150h20v10h-20zM20 160h70v10h-70zM110 160h30v10h-30zM170 160h20v10h-20zM200 160h30v10h-30zM20 170h10v10h-10zM80 170h10v10h-10zM130 170h20v10h-20zM170 170h10v10h-10zM220 170h10v10h-10zM20 180h10v10h-10zM40 180h30v10h-30zM80 180h10v10h-10zM100 180h40v10h-40zM180 180h10v10h-10zM20 190h10v10h-10zM40 190h30v10h-30zM80 190h10v10h-10zM110 190h30v10h-30zM160 190h30v10h-30zM200 190h20v10h-20zM20 200h10v10h-10zM40 200h30v10h-30zM80 200h10v10h-10zM120 200h10v10h-10zM140 200h10v10h-10zM160 200h10v10h-10zM180 200h10v10h-10zM200 200h10v10h-10zM220 200h10v10h-10zM20 210h10v10h-10zM80 210h10v10h-10zM100 210h10v10h-10zM120 210h20v10h-20zM180 210h10v10h-10zM210 210h10v10h-10zM20 220h70v10h-70zM110 220h10v10h-10zM130 220h20v10h-20zM170 220h10v10h-10zM210 220h20v10h-20z"/></svg>